<mxfile host="app.diagrams.net" agent="Mozilla/5.0 (Macintosh; Intel Mac OS X 10_15_7) AppleWebKit/537.36 (KHTML, like Gecko) Chrome/131.0.0.0 Safari/537.36" version="24.9.0">
  <diagram name="第 1 页" id="mCHr2vUuVMV0GQW4Zuwm">
    <mxGraphModel dx="1306" dy="730" grid="1" gridSize="10" guides="1" tooltips="1" connect="1" arrows="1" fold="1" page="1" pageScale="1" pageWidth="827" pageHeight="1169" math="0" shadow="0">
      <root>
        <mxCell id="0" />
        <mxCell id="1" parent="0" />
        <mxCell id="9AjZPdakFnoAqnnk93dL-1" value="&lt;font face=&quot;Comic Sans MS&quot; style=&quot;font-size: 15px;&quot;&gt;DocID&lt;/font&gt;" style="rounded=1;whiteSpace=wrap;html=1;fillColor=#f8cecc;strokeColor=#b85450;fillStyle=hatch;strokeWidth=1.5;" vertex="1" parent="1">
          <mxGeometry x="40" y="80" width="80" height="360" as="geometry" />
        </mxCell>
        <mxCell id="9AjZPdakFnoAqnnk93dL-2" value="&lt;div&gt;&lt;font face=&quot;Comic Sans MS&quot;&gt;&lt;span style=&quot;font-size: 15px;&quot;&gt;Internal&lt;/span&gt;&lt;/font&gt;&lt;/div&gt;&lt;font style=&quot;&quot;&gt;&lt;font face=&quot;Comic Sans MS&quot;&gt;&lt;span style=&quot;font-size: 15px;&quot;&gt;DocID&lt;/span&gt;&lt;/font&gt;&lt;/font&gt;&lt;div&gt;&lt;font face=&quot;Comic Sans MS&quot;&gt;&lt;span style=&quot;font-size: 15px;&quot;&gt;(&lt;/span&gt;&lt;font&gt;consecutive integers&lt;/font&gt;&lt;span style=&quot;font-size: 15px;&quot;&gt;)&lt;/span&gt;&lt;/font&gt;&lt;/div&gt;" style="rounded=1;whiteSpace=wrap;html=1;fillColor=#f8cecc;strokeColor=#b85450;fillStyle=hatch;strokeWidth=1.5;" vertex="1" parent="1">
          <mxGeometry x="200" y="80" width="80" height="360" as="geometry" />
        </mxCell>
        <mxCell id="9AjZPdakFnoAqnnk93dL-3" value="" style="endArrow=classic;html=1;rounded=0;strokeWidth=1.5;fillColor=#f8cecc;strokeColor=#b85450;" edge="1" parent="1">
          <mxGeometry width="50" height="50" relative="1" as="geometry">
            <mxPoint x="124" y="259.5" as="sourcePoint" />
            <mxPoint x="194" y="259.5" as="targetPoint" />
          </mxGeometry>
        </mxCell>
        <mxCell id="9AjZPdakFnoAqnnk93dL-5" value="&lt;div&gt;&lt;font face=&quot;Comic Sans MS&quot;&gt;&lt;span style=&quot;font-size: 15px;&quot;&gt;column-oriented storage&lt;/span&gt;&lt;/font&gt;&lt;/div&gt;" style="rounded=1;whiteSpace=wrap;html=1;fillColor=#f8cecc;strokeColor=#b85450;fillStyle=hatch;strokeWidth=1.5;" vertex="1" parent="1">
          <mxGeometry x="370" y="80" width="80" height="360" as="geometry" />
        </mxCell>
        <mxCell id="9AjZPdakFnoAqnnk93dL-6" value="&lt;font style=&quot;font-size: 15px;&quot; face=&quot;Comic Sans MS&quot;&gt;field&lt;/font&gt;" style="text;html=1;align=center;verticalAlign=middle;resizable=0;points=[];autosize=1;strokeColor=none;fillColor=none;" vertex="1" parent="1">
          <mxGeometry x="380" y="90" width="60" height="30" as="geometry" />
        </mxCell>
        <mxCell id="9AjZPdakFnoAqnnk93dL-7" value="" style="endArrow=classic;html=1;rounded=0;strokeWidth=1.5;fillColor=#f8cecc;strokeColor=#b85450;" edge="1" parent="1">
          <mxGeometry width="50" height="50" relative="1" as="geometry">
            <mxPoint x="290" y="259.5" as="sourcePoint" />
            <mxPoint x="360" y="259.5" as="targetPoint" />
          </mxGeometry>
        </mxCell>
      </root>
    </mxGraphModel>
  </diagram>
</mxfile>
